<svg id="Layer_1" height="150" viewBox="0 0 128 128" width="150" xmlns="http://www.w3.org/2000/svg" xmlns:xlink="http://www.w3.org/1999/xlink" data-name="Layer 1"><linearGradient id="linear-gradient" gradientUnits="userSpaceOnUse" x1="97.941" x2="30.059" y1="97.941" y2="30.059"><stop offset="0" stop-color="#30ade0"/><stop offset="1" stop-color="#85c646"/></linearGradient><path stroke="#000000" stroke-width="1px" d="m116.8 11.2a22.027 22.027 0 0 0 -31.154 0l-2.47 2.47a1.749 1.749 0 1 0 2.474 2.474l2.47-2.469a18.53 18.53 0 0 1 26.206 26.205l-16.943 16.942a18.638 18.638 0 0 1 -22.4 2.91l1.837-1.832a16.1 16.1 0 0 0 18.8-2.838l16.94-16.947a16.034 16.034 0 0 0 -22.677-22.673l-16.943 16.943a16.014 16.014 0 0 0 -2.839 18.8l-1.833 1.833a18.638 18.638 0 0 1 2.909-22.4l1.877-1.876a1.75 1.75 0 0 0 -2.475-2.474l-1.879 1.875a22.15 22.15 0 0 0 -2.979 27.415l-10.163 10.167a22.147 22.147 0 0 0 -27.415 2.975l-16.943 16.943a22.029 22.029 0 1 0 31.157 31.157l16.943-16.943a21.886 21.886 0 0 0 6.45-15.577 22.2 22.2 0 0 0 -.246-3.289 1.75 1.75 0 0 0 -3.461.52 18.546 18.546 0 0 1 -5.22 15.872l-16.94 16.939a18.53 18.53 0 1 1 -26.206-26.2l16.94-16.939a18.637 18.637 0 0 1 22.4-2.91l-1.834 1.827a16.133 16.133 0 0 0 -18.8 2.843l-16.943 16.942a16.034 16.034 0 0 0 22.677 22.673l16.943-16.943a16.014 16.014 0 0 0 2.839-18.8l14.537-14.535a22.13 22.13 0 0 0 27.421-2.98l16.94-16.94a22.027 22.027 0 0 0 0-31.154zm-45.05 32.52a12.482 12.482 0 0 1 3.667-8.863l16.939-16.939a12.534 12.534 0 0 1 17.727 17.725l-16.939 16.939a12.62 12.62 0 0 1 -13.7 2.69l4.039-4.039a1.749 1.749 0 1 0 -2.474-2.474l-5.7 5.7c-.013.012-.026.024-.038.037l-20.781 20.781-.022.022-17.098 17.101-1.77-1.771 17.1-17.093.036-.036 4.213-4.213h.005l16.552-16.56.03-.031 17.093-17.096 1.771 1.771-5.075 5.075a1.75 1.75 0 0 0 2.475 2.475l6.312-6.313a1.748 1.748 0 0 0 0-2.474l-4.242-4.242a1.748 1.748 0 0 0 -2.474 0l-16.669 16.664a12.472 12.472 0 0 1 -.977-4.836zm-15.5 40.56a12.482 12.482 0 0 1 -3.667 8.863l-16.939 16.939a12.534 12.534 0 0 1 -17.727-17.725l16.939-16.939a12.621 12.621 0 0 1 13.7-2.691l-16.665 16.665a1.748 1.748 0 0 0 0 2.474l4.242 4.242a1.748 1.748 0 0 0 2.474 0l16.666-16.665a12.48 12.48 0 0 1 .977 4.837zm19.017-60.226a1.749 1.749 0 0 1 0-2.475l2.687-2.687a1.75 1.75 0 0 1 2.475 2.474l-2.688 2.688a1.75 1.75 0 0 1 -2.474 0zm-45.208 8.479a1.75 1.75 0 0 1 2.475-2.474l9.111 9.111a1.75 1.75 0 0 1 -2.475 2.475zm16.523-11.414a1.75 1.75 0 1 1 3.29-1.193l4.394 12.112a1.75 1.75 0 1 1 -3.29 1.193zm-27.704 26.511a1.752 1.752 0 0 1 2.242-1.049l12.111 4.395a1.75 1.75 0 0 1 -1.193 3.291l-12.112-4.4a1.75 1.75 0 0 1 -1.048-2.237zm79.063 47.837a1.75 1.75 0 1 1 -2.475 2.474l-9.111-9.111a1.75 1.75 0 0 1 2.475-2.475zm11.181-15.1a1.753 1.753 0 0 1 -2.242 1.049l-12.111-4.392a1.75 1.75 0 1 1 1.193-3.291l12.112 4.395a1.75 1.75 0 0 1 1.048 2.242zm-27.7 26.511a1.75 1.75 0 1 1 -3.29 1.193l-4.398-12.109a1.75 1.75 0 1 1 3.29-1.193z" fill="url(#linear-gradient)"/></svg>