<?xml version="1.0" encoding="iso-8859-1"?>
<!-- Generator: Adobe Illustrator 19.0.0, SVG Export Plug-In . SVG Version: 6.00 Build 0)  -->
<svg version="1.1" id="Capa_1" xmlns="http://www.w3.org/2000/svg" xmlns:xlink="http://www.w3.org/1999/xlink" x="0px" y="0px"
	 viewBox="0 0 386.173 386.173" style="enable-background:new 0 0 386.173 386.173;" xml:space="preserve">
<g>
	<g>
		<path d="M386.16,317.007v-237.2h-47.6v237.04c-0.18,10.841,6.681,20.55,16.96,24c2.154,0.645,4.392,0.968,6.64,0.96
			c13.255,0.007,24.006-10.732,24.013-23.987C386.174,317.549,386.169,317.278,386.16,317.007z"/>
	</g>
</g>
<g>
	<g>
		<path d="M325.04,317.647V44.367H24c-13.255,0-24,10.745-24,24v249.68c0.218,13.098,10.9,23.602,24,23.6h309.52
			C327.965,334.889,324.963,326.394,325.04,317.647z M233.12,111.007c1.461-1.761,4.071-2.011,5.84-0.56
			c4.318,3.661,9.708,5.823,15.36,6.16c3.559,0.067,7.051-0.967,10-2.96c2.026-1.236,3.313-3.39,3.44-5.76
			c0.02-0.906-0.231-1.797-0.72-2.56c-0.607-0.972-1.428-1.793-2.4-2.4c-3.419-1.919-7.161-3.193-11.04-3.76
			c-3.585-0.596-7.079-1.644-10.4-3.12c-3.023-1.33-5.604-3.495-7.44-6.24c-1.214-1.972-1.851-4.244-1.84-6.56
			c0.15-4.713,2.524-9.075,6.4-11.76c4.089-2.82,8.953-4.301,13.92-4.24c6.353,0.312,12.462,2.544,17.52,6.4
			c1.846,1.28,2.341,3.795,1.12,5.68c-1.218,1.896-3.742,2.445-5.638,1.227c-0.014-0.009-0.028-0.018-0.042-0.027
			c-3.699-2.985-8.22-4.772-12.96-5.12c-3.197-0.048-6.329,0.903-8.96,2.72c-1.772,1.087-2.905,2.966-3.04,5.04
			c-0.048,0.786,0.148,1.568,0.56,2.24c0.582,0.823,1.315,1.529,2.16,2.08c3.075,1.807,6.471,3.002,10,3.52
			c3.829,0.666,7.563,1.794,11.12,3.36c3.238,1.417,6.01,3.719,8,6.64c1.254,2.047,1.918,4.4,1.92,6.8
			c-0.135,5.029-2.699,9.681-6.88,12.48c-4.352,3.057-9.562,4.654-14.88,4.56c-7.541-0.36-14.759-3.169-20.56-8
			C231.959,115.364,231.712,112.789,233.12,111.007z M148.08,69.727c2.196-0.933,4.732,0.09,5.666,2.286
			c0.005,0.011,0.01,0.023,0.014,0.034l16,37.2l10.32-24.64c0.693-1.678,2.345-2.758,4.16-2.72c1.802,0.005,3.433,1.071,4.16,2.72
			l10.32,24.64l16-37.2c0.987-2.238,3.586-3.27,5.84-2.32c2.186,0.951,3.188,3.493,2.24,5.68l-20.08,46.8
			c-0.086,0.263-0.222,0.508-0.4,0.72v0.48h-0.56c0,0,0,0.4-0.72,0.48h-0.64h-1.92h-0.56c-0.281-0.087-0.532-0.254-0.72-0.48h-0.56
			v-0.48c-0.039-0.238-0.039-0.482,0-0.72l-10.56-24.88l-12.56,24.88v0.72l-0.48,0.48h-0.48l-0.64,0.48
			c-0.209-0.058-0.431-0.058-0.64,0h-2h-0.56c-0.271-0.108-0.516-0.271-0.72-0.48c0,0,0,0-0.56,0v-0.48
			c-0.15-0.231-0.283-0.471-0.4-0.72l-19.76-46.8C146.07,73.584,146.414,71.144,148.08,69.727z M100.72,73.167
			c-0.045-2.385,1.853-4.355,4.238-4.4c0.054-0.001,0.108-0.001,0.161,0h26.24c2.412,0.043,4.357,1.988,4.4,4.4
			c-0.041,2.426-1.975,4.395-4.4,4.48H109.6v14.72h18.72c2.452,0.33,4.173,2.585,3.843,5.037c-0.269,2-1.842,3.574-3.843,3.843
			H109.6v14.8h21.76c2.452,0.33,4.173,2.585,3.843,5.037c-0.269,2-1.842,3.574-3.843,3.843h-26.24c-2.43,0-4.4-1.97-4.4-4.4V73.167z
			 M44.16,120.527v-46.64c-0.066-1.444,0.595-2.825,1.76-3.68c1.951-1.387,4.652-0.96,6.08,0.96l25.92,35.92v-33.2
			c0.043-2.368,1.952-4.277,4.32-4.32c2.382,0.041,4.315,1.939,4.4,4.32v46.64c-0.043,2.412-1.988,4.357-4.4,4.4
			c-1.276-0.023-2.477-0.608-3.28-1.6l-0.4-0.48l-25.68-35.68v33.36c0.327,2.408-1.36,4.625-3.768,4.952
			c-2.408,0.327-4.625-1.36-4.952-3.768C44.107,121.318,44.107,120.919,44.16,120.527z M252.32,298.527H37.12c-4.418,0-8-3.582-8-8
			s3.582-8,8-8h0.08h215.12c4.418,0,8,3.582,8,8S256.738,298.527,252.32,298.527z M252.32,267.487H37.12c-4.418,0-8-3.582-8-8
			c0-4.418,3.582-8,8-8h0.08h215.12c4.418,0,8,3.582,8,8C260.32,263.905,256.738,267.487,252.32,267.487z M252.32,236.447H37.12
			c-4.418,0-8-3.582-8-8s3.582-8,8-8h0.08h215.12c4.418,0,8,3.582,8,8S256.738,236.447,252.32,236.447z M29.12,197.407
			c0-4.418,3.582-8,8-8h0.08h215.12c4.418,0.006,7.995,3.593,7.989,8.011c-0.006,4.41-3.579,7.983-7.989,7.989H37.12
			C32.702,205.407,29.12,201.825,29.12,197.407z M279.04,156.767H37.12c-4.418,0-8-3.582-8-8s3.582-8,8-8h0.08h241.84
			c4.418,0,8,3.582,8,8S283.458,156.767,279.04,156.767z"/>
	</g>
</g>
<g>
</g>
<g>
</g>
<g>
</g>
<g>
</g>
<g>
</g>
<g>
</g>
<g>
</g>
<g>
</g>
<g>
</g>
<g>
</g>
<g>
</g>
<g>
</g>
<g>
</g>
<g>
</g>
<g>
</g>
</svg>
