<svg id="Layer_1" height="100" viewBox="0 0 128 128" width="100" xmlns="http://www.w3.org/2000/svg" xmlns:xlink="http://www.w3.org/1999/xlink" data-name="Layer 1"><linearGradient id="linear-gradient" gradientUnits="userSpaceOnUse" x1="118.315" x2="9.685" y1="109.47" y2=".84"><stop offset="0" stop-color="#30ade0"/><stop offset="1" stop-color="#85c646"/></linearGradient><path class="npicon" d="m82.958 16.594a3.024 3.024 0 1 1 3.024-3.023 3.024 3.024 0 0 1 -3.024 3.023zm14.857-3.023a3.024 3.024 0 1 0 -3.023 3.023 3.024 3.024 0 0 0 3.023-3.023zm11.833 0a3.023 3.023 0 1 0 -3.023 3.023 3.023 3.023 0 0 0 3.023-3.023zm11.852 48.679a1.75 1.75 0 0 0 -1.75 1.75v6.029a1.75 1.75 0 0 0 3.5 0v-6.029a1.75 1.75 0 0 0 -1.75-1.75zm1.75-55.75v48.654a1.75 1.75 0 0 1 -3.5 0v-32.763h-55.75a1.75 1.75 0 0 1 0-3.5h55.75v-10.641h-111.5v10.641h42.19a1.75 1.75 0 0 1 0 3.5h-42.19v79.669h28.58v-1.71a9.7 9.7 0 0 1 9.69-9.69h.855a20.066 20.066 0 0 1 -3.29-14.8 1.75 1.75 0 1 1 3.451.583 16.665 16.665 0 1 0 3.119-7.268 1.75 1.75 0 1 1 -2.8-2.1 20.014 20.014 0 0 1 6.911-5.822 20.2 20.2 0 0 1 25.875 29.407h.839a9.7 9.7 0 0 1 9.69 9.69v1.71h28.58v-22.852a1.75 1.75 0 0 1 3.5 0v24.6a1.75 1.75 0 0 1 -1.75 1.75h-30.33v15.942a1.75 1.75 0 0 1 -1.75 1.75h-50.84a1.751 1.751 0 0 1 -1.75-1.75v-15.94h-30.33a1.751 1.751 0 0 1 -1.75-1.75v-97.31a1.751 1.751 0 0 1 1.75-1.75h115a1.75 1.75 0 0 1 1.75 1.75zm-82.92 113.25h6.611v-7.878a1.75 1.75 0 1 1 3.5 0v7.878h27.118v-7.878a1.75 1.75 0 1 1 3.5 0v7.878h6.611v-19.4a6.2 6.2 0 0 0 -6.19-6.19h-3.926a20.287 20.287 0 0 1 -4.322 3.008 20.083 20.083 0 0 1 -9.2 2.232 20.308 20.308 0 0 1 -13.6-5.24h-3.912a6.2 6.2 0 0 0 -6.19 6.19zm55.55-85.922a1.749 1.749 0 0 1 1.75 1.75v12a1.75 1.75 0 0 1 -1.75 1.75h-63.76a1.751 1.751 0 0 1 -1.75-1.75v-12a1.75 1.75 0 0 1 1.75-1.75zm-1.75 3.5h-60.26v8.5h60.26z" fill="url(#linear-gradient)"/></svg>